<svg xmlns="http://www.w3.org/2000/svg" width="1480" height="380" viewBox="0 0 1480 380">
  <defs>
    <g id="MT"><rect x="0" y="0" width="156" height="28"/><rect x="56" y="28" width="44" height="128"/></g>
    <g id="MO"><rect x="0" y="28" width="36" height="92"/><rect x="36" y="0" width="84" height="28"/><rect x="120" y="28" width="36" height="92"/><rect x="36" y="120" width="84" height="28"/></g>
    <g id="MR"><rect x="0" y="0" width="36" height="148"/><rect x="36" y="0" width="84" height="28"/><rect x="120" y="28" width="36" height="36"/><rect x="36" y="64" width="84" height="28"/><rect x="64" y="92" width="36" height="28"/><rect x="92" y="120" width="36" height="28"/><rect x="120" y="148" width="36" height="8"/></g>
    <g id="MI"><rect x="0" y="0" width="156" height="28"/><rect x="56" y="28" width="44" height="92"/><rect x="0" y="120" width="156" height="28"/></g>
    <g id="MA"><rect x="0" y="28" width="36" height="128"/><rect x="120" y="28" width="36" height="128"/><rect x="36" y="0" width="84" height="28"/><rect x="36" y="64" width="84" height="28"/></g>
  </defs>
  <rect width="1480" height="380" fill="#121212"/>
  <g fill="#f4f4f4" transform="translate(158 112)">
    <use href="#MT" x="0"/><use href="#MO" x="184"/><use href="#MR" x="368"/><use href="#MI" x="552"/><use href="#MA" x="736"/><use href="#MI" x="920"/>
  </g>
</svg>
