<svg xmlns="http://www.w3.org/2000/svg" width="1320" height="340" viewBox="0 0 1320 340">
  <defs>
    <g id="WT"><rect x="0" y="0" width="132" height="20"/><rect x="54" y="20" width="24" height="118"/></g>
    <g id="WO"><rect x="0" y="20" width="24" height="94"/><rect x="24" y="0" width="84" height="20"/><rect x="108" y="20" width="24" height="94"/><rect x="24" y="114" width="84" height="20"/></g>
    <g id="WR"><rect x="0" y="0" width="24" height="134"/><rect x="24" y="0" width="84" height="20"/><rect x="108" y="20" width="24" height="34"/><rect x="24" y="54" width="84" height="20"/><rect x="60" y="74" width="24" height="20"/><rect x="84" y="94" width="24" height="20"/><rect x="108" y="114" width="24" height="20"/></g>
    <g id="WI"><rect x="0" y="0" width="132" height="20"/><rect x="54" y="20" width="24" height="94"/><rect x="0" y="114" width="132" height="20"/></g>
    <g id="WA"><rect x="0" y="20" width="24" height="114"/><rect x="108" y="20" width="24" height="114"/><rect x="24" y="0" width="84" height="20"/><rect x="24" y="54" width="84" height="20"/></g>
  </defs>
  <rect width="1320" height="340" fill="#15131d"/>
  <g fill="#b59bff" transform="translate(177 103)">
    <use href="#WT" x="0"/><use href="#WO" x="156"/><use href="#WR" x="312"/><use href="#WI" x="468"/><use href="#WA" x="624"/><use href="#WI" x="780"/>
  </g>
</svg>
