<svg xmlns="http://www.w3.org/2000/svg" width="1200" height="280" viewBox="0 0 1200 280">
  <defs>
    <g id="L_T"><rect x="0" y="0" width="84" height="14"/><rect x="35" y="14" width="14" height="84"/></g>
    <g id="L_O"><rect x="0" y="14" width="14" height="70"/><rect x="14" y="0" width="56" height="14"/><rect x="70" y="14" width="14" height="70"/><rect x="14" y="84" width="56" height="14"/></g>
    <g id="L_R"><rect x="0" y="0" width="14" height="98"/><rect x="14" y="0" width="56" height="14"/><rect x="70" y="14" width="14" height="28"/><rect x="14" y="42" width="56" height="14"/><rect x="42" y="56" width="14" height="14"/><rect x="56" y="70" width="14" height="14"/><rect x="70" y="84" width="14" height="14"/></g>
    <g id="L_I"><rect x="0" y="0" width="84" height="14"/><rect x="35" y="14" width="14" height="70"/><rect x="0" y="84" width="84" height="14"/></g>
    <g id="L_A"><rect x="0" y="14" width="14" height="84"/><rect x="70" y="14" width="14" height="84"/><rect x="14" y="0" width="56" height="14"/><rect x="14" y="42" width="56" height="14"/></g>
  </defs>
  <rect width="1200" height="280" fill="#15131d"/>
  <g fill="#a78bfa" transform="translate(251 91)">
    <use href="#L_T" x="0"/><use href="#L_O" x="108"/><use href="#L_R" x="216"/><use href="#L_I" x="324"/><use href="#L_A" x="432"/><use href="#L_I" x="540"/>
  </g>
</svg>
