<svg xmlns="http://www.w3.org/2000/svg" width="1480" height="400" viewBox="0 0 1480 400">
  <defs>
    <g id="TT"><rect x="0" y="0" width="154" height="26"/><rect x="58" y="26" width="38" height="128"/></g>
    <g id="TO"><rect x="0" y="26" width="32" height="96"/><rect x="32" y="0" width="90" height="26"/><rect x="122" y="26" width="32" height="96"/><rect x="32" y="122" width="90" height="26"/></g>
    <g id="TR"><rect x="0" y="0" width="32" height="148"/><rect x="32" y="0" width="86" height="26"/><rect x="118" y="26" width="32" height="34"/><rect x="32" y="60" width="86" height="26"/><rect x="82" y="86" width="36" height="28"/><rect x="100" y="114" width="36" height="34"/></g>
    <g id="TI"><rect x="0" y="0" width="118" height="26"/><rect x="40" y="26" width="38" height="96"/><rect x="0" y="122" width="118" height="26"/></g>
    <g id="TA"><rect x="0" y="26" width="32" height="122"/><rect x="122" y="26" width="32" height="122"/><rect x="32" y="0" width="90" height="26"/><rect x="32" y="60" width="90" height="26"/></g>
    <g id="WORD">
      <use href="#TT" x="0"/><use href="#TO" x="184"/><use href="#TR" x="368"/><use href="#TI" x="552"/><use href="#TA" x="700"/><use href="#TI" x="884"/>
    </g>
  </defs>
  <g transform="translate(184 108)">
    <g fill="none" stroke="#5637c3" stroke-width="8" stroke-linejoin="miter">
      <use href="#WORD" transform="translate(20 20)"/>
    </g>
    <g fill="none" stroke="#7e5cf1" stroke-width="8" stroke-linejoin="miter">
      <use href="#WORD" transform="translate(10 10)"/>
    </g>
    <g fill="#c6b3ff">
      <use href="#WORD"/>
    </g>
  </g>
</svg>
